<?xml version="1.0" encoding="UTF-8" standalone="no"?>
<!DOCTYPE svg PUBLIC "-//W3C//DTD SVG 1.1//EN"
 "http://www.w3.org/Graphics/SVG/1.1/DTD/svg11.dtd">
<!-- Generated by graphviz version 2.40.1 (20161225.0304)
 -->
<!-- Title: dependencies Pages: 1 -->
<svg width="504pt" height="211pt"
 viewBox="0.00 0.00 504.00 211.00" xmlns="http://www.w3.org/2000/svg" xmlns:xlink="http://www.w3.org/1999/xlink">
<g id="graph0" class="graph" transform="scale(1 1) rotate(0) translate(4 207)">
<title>dependencies</title>
<polygon fill="#ffffff" stroke="transparent" points="-4,4 -4,-207 500,-207 500,4 -4,4"/>
<text text-anchor="start" x="227.0091" y="-42.4" font-family="sans-serif" font-weight="bold" font-size="14.00" fill="#000000">Legend</text>
<polygon fill="#ffffb3" stroke="transparent" points="14,-10 14,-30 34,-30 34,-10 14,-10"/>
<text text-anchor="start" x="37.629" y="-15.4" font-family="sans-serif" font-size="14.00" fill="#000000"> &#160;Declarations</text>
<polygon fill="#8dd3c7" stroke="transparent" points="127,-10 127,-30 147,-30 147,-10 127,-10"/>
<text text-anchor="start" x="150.7251" y="-15.4" font-family="sans-serif" font-size="14.00" fill="#000000"> &#160;Module</text>
<polygon fill="#80b1d3" stroke="transparent" points="213,-10 213,-30 233,-30 233,-10 213,-10"/>
<text text-anchor="start" x="236.7812" y="-15.4" font-family="sans-serif" font-size="14.00" fill="#000000"> &#160;Bootstrap</text>
<polygon fill="#fdb462" stroke="transparent" points="310,-10 310,-30 330,-30 330,-10 310,-10"/>
<text text-anchor="start" x="333.6732" y="-15.4" font-family="sans-serif" font-size="14.00" fill="#000000"> &#160;Providers</text>
<polygon fill="#fb8072" stroke="transparent" points="406,-10 406,-30 426,-30 426,-10 406,-10"/>
<text text-anchor="start" x="429.7258" y="-15.4" font-family="sans-serif" font-size="14.00" fill="#000000"> &#160;Exports</text>
<g id="clust1" class="cluster">
<title>cluster_PaymentModule</title>
<polygon fill="none" stroke="#000000" stroke-dasharray="1,5" points="98,-70 98,-195 398,-195 398,-70 98,-70"/>
</g>
<g id="clust2" class="cluster">
<title>cluster_PaymentModule_declarations</title>
<polygon fill="none" stroke="#000000" points="106,-78 106,-130 390,-130 390,-78 106,-78"/>
</g>
<!-- DialogTransaction -->
<g id="node1" class="node">
<title>DialogTransaction</title>
<polygon fill="#ffffb3" stroke="#000000" points="382.1853,-122 261.8147,-122 261.8147,-86 382.1853,-86 382.1853,-122"/>
<text text-anchor="middle" x="322" y="-99.8" font-family="Times,serif" font-size="14.00" fill="#000000">DialogTransaction</text>
</g>
<!-- PaymentModule -->
<g id="node3" class="node">
<title>PaymentModule</title>
<polygon fill="#8dd3c7" stroke="#000000" points="304.0438,-187 301.0438,-191 280.0438,-191 277.0438,-187 195.9562,-187 195.9562,-151 304.0438,-151 304.0438,-187"/>
<text text-anchor="middle" x="250" y="-164.8" font-family="Times,serif" font-size="14.00" fill="#000000">PaymentModule</text>
</g>
<!-- DialogTransaction&#45;&gt;PaymentModule -->
<g id="edge1" class="edge">
<title>DialogTransaction&#45;&gt;PaymentModule</title>
<path fill="none" stroke="#000000" d="M283.0894,-122.1061C283.0894,-122.1061 283.0894,-140.991 283.0894,-140.991"/>
<polygon fill="#000000" stroke="#000000" points="279.5895,-140.9909 283.0894,-150.991 286.5895,-140.991 279.5895,-140.9909"/>
</g>
<!-- PaymentComponent -->
<g id="node2" class="node">
<title>PaymentComponent</title>
<polygon fill="#ffffb3" stroke="#000000" points="244.3258,-122 113.6742,-122 113.6742,-86 244.3258,-86 244.3258,-122"/>
<text text-anchor="middle" x="179" y="-99.8" font-family="Times,serif" font-size="14.00" fill="#000000">PaymentComponent</text>
</g>
<!-- PaymentComponent&#45;&gt;PaymentModule -->
<g id="edge2" class="edge">
<title>PaymentComponent&#45;&gt;PaymentModule</title>
<path fill="none" stroke="#000000" d="M219.9457,-122.1061C219.9457,-122.1061 219.9457,-140.991 219.9457,-140.991"/>
<polygon fill="#000000" stroke="#000000" points="216.4457,-140.9909 219.9457,-150.991 223.4457,-140.991 216.4457,-140.9909"/>
</g>
</g>
</svg>
