<?xml version="1.0" encoding="UTF-8" standalone="no"?>
<!DOCTYPE svg PUBLIC "-//W3C//DTD SVG 1.1//EN"
 "http://www.w3.org/Graphics/SVG/1.1/DTD/svg11.dtd">
<!-- Generated by graphviz version 2.40.1 (20161225.0304)
 -->
<!-- Title: dependencies Pages: 1 -->
<svg width="1160pt" height="284pt"
 viewBox="0.00 0.00 1160.00 284.00" xmlns="http://www.w3.org/2000/svg" xmlns:xlink="http://www.w3.org/1999/xlink">
<g id="graph0" class="graph" transform="scale(1 1) rotate(0) translate(4 280)">
<title>dependencies</title>
<polygon fill="#ffffff" stroke="transparent" points="-4,4 -4,-280 1156,-280 1156,4 -4,4"/>
<text text-anchor="start" x="555.0091" y="-42.4" font-family="sans-serif" font-weight="bold" font-size="14.00" fill="#000000">Legend</text>
<polygon fill="#ffffb3" stroke="transparent" points="342,-10 342,-30 362,-30 362,-10 342,-10"/>
<text text-anchor="start" x="365.629" y="-15.4" font-family="sans-serif" font-size="14.00" fill="#000000"> &#160;Declarations</text>
<polygon fill="#8dd3c7" stroke="transparent" points="455,-10 455,-30 475,-30 475,-10 455,-10"/>
<text text-anchor="start" x="478.7251" y="-15.4" font-family="sans-serif" font-size="14.00" fill="#000000"> &#160;Module</text>
<polygon fill="#80b1d3" stroke="transparent" points="541,-10 541,-30 561,-30 561,-10 541,-10"/>
<text text-anchor="start" x="564.7812" y="-15.4" font-family="sans-serif" font-size="14.00" fill="#000000"> &#160;Bootstrap</text>
<polygon fill="#fdb462" stroke="transparent" points="638,-10 638,-30 658,-30 658,-10 638,-10"/>
<text text-anchor="start" x="661.6732" y="-15.4" font-family="sans-serif" font-size="14.00" fill="#000000"> &#160;Providers</text>
<polygon fill="#fb8072" stroke="transparent" points="734,-10 734,-30 754,-30 754,-10 734,-10"/>
<text text-anchor="start" x="757.7258" y="-15.4" font-family="sans-serif" font-size="14.00" fill="#000000"> &#160;Exports</text>
<g id="clust1" class="cluster">
<title>cluster_ComponentsModule</title>
<polygon fill="none" stroke="#000000" stroke-dasharray="1,5" points="8,-70 8,-268 1144,-268 1144,-70 8,-70"/>
</g>
<g id="clust2" class="cluster">
<title>cluster_ComponentsModule_declarations</title>
<polygon fill="none" stroke="#000000" points="158,-78 158,-130 1136,-130 1136,-78 158,-78"/>
</g>
<g id="clust10" class="cluster">
<title>cluster_ComponentsModule_imports</title>
<polygon fill="none" stroke="#000000" points="16,-78 16,-130 150,-130 150,-78 16,-78"/>
</g>
<g id="clust11" class="cluster">
<title>cluster_ComponentsModule_exports</title>
<polygon fill="none" stroke="#000000" points="78,-208 78,-260 1079,-260 1079,-208 78,-208"/>
</g>
<!-- ButtonComponent -->
<g id="node1" class="node">
<title>ButtonComponent</title>
<polygon fill="#ffffb3" stroke="#000000" points="1127.9511,-122 1008.0489,-122 1008.0489,-86 1127.9511,-86 1127.9511,-122"/>
<text text-anchor="middle" x="1068" y="-99.8" font-family="Times,serif" font-size="14.00" fill="#000000">ButtonComponent</text>
</g>
<!-- ComponentsModule -->
<g id="node8" class="node">
<title>ComponentsModule</title>
<polygon fill="#8dd3c7" stroke="#000000" points="660.3272,-187 657.3272,-191 636.3272,-191 633.3272,-187 529.6728,-187 529.6728,-151 660.3272,-151 660.3272,-187"/>
<text text-anchor="middle" x="595" y="-164.8" font-family="Times,serif" font-size="14.00" fill="#000000">ComponentsModule</text>
</g>
<!-- ButtonComponent&#45;&gt;ComponentsModule -->
<g id="edge1" class="edge">
<title>ButtonComponent&#45;&gt;ComponentsModule</title>
<path fill="none" stroke="#000000" d="M1039.875,-122.1061C1039.875,-141.3391 1039.875,-169 1039.875,-169 1039.875,-169 670.1651,-169 670.1651,-169"/>
<polygon fill="#000000" stroke="#000000" points="670.1651,-165.5001 660.1651,-169 670.165,-172.5001 670.1651,-165.5001"/>
</g>
<!-- FooterComponent -->
<g id="node2" class="node">
<title>FooterComponent</title>
<polygon fill="#ffffb3" stroke="#000000" points="989.8809,-122 872.1191,-122 872.1191,-86 989.8809,-86 989.8809,-122"/>
<text text-anchor="middle" x="931" y="-99.8" font-family="Times,serif" font-size="14.00" fill="#000000">FooterComponent</text>
</g>
<!-- FooterComponent&#45;&gt;ComponentsModule -->
<g id="edge2" class="edge">
<title>FooterComponent&#45;&gt;ComponentsModule</title>
<path fill="none" stroke="#000000" d="M901.375,-122.0225C901.375,-139.3734 901.375,-163 901.375,-163 901.375,-163 670.3493,-163 670.3493,-163"/>
<polygon fill="#000000" stroke="#000000" points="670.3494,-159.5001 660.3493,-163 670.3493,-166.5001 670.3494,-159.5001"/>
</g>
<!-- HeaderComponent -->
<g id="node3" class="node">
<title>HeaderComponent</title>
<polygon fill="#ffffb3" stroke="#000000" points="853.7437,-122 732.2563,-122 732.2563,-86 853.7437,-86 853.7437,-122"/>
<text text-anchor="middle" x="793" y="-99.8" font-family="Times,serif" font-size="14.00" fill="#000000">HeaderComponent</text>
</g>
<!-- HeaderComponent&#45;&gt;ComponentsModule -->
<g id="edge3" class="edge">
<title>HeaderComponent&#45;&gt;ComponentsModule</title>
<path fill="none" stroke="#000000" d="M761.875,-122.2396C761.875,-137.5706 761.875,-157 761.875,-157 761.875,-157 670.4745,-157 670.4745,-157"/>
<polygon fill="#000000" stroke="#000000" points="670.4745,-153.5001 660.4745,-157 670.4744,-160.5001 670.4745,-153.5001"/>
</g>
<!-- ListComponent -->
<g id="node4" class="node">
<title>ListComponent</title>
<polygon fill="#ffffb3" stroke="#000000" points="714.6109,-122 611.3891,-122 611.3891,-86 714.6109,-86 714.6109,-122"/>
<text text-anchor="middle" x="663" y="-99.8" font-family="Times,serif" font-size="14.00" fill="#000000">ListComponent</text>
</g>
<!-- ListComponent&#45;&gt;ComponentsModule -->
<g id="edge4" class="edge">
<title>ListComponent&#45;&gt;ComponentsModule</title>
<path fill="none" stroke="#000000" d="M635.804,-122.1061C635.804,-122.1061 635.804,-140.991 635.804,-140.991"/>
<polygon fill="#000000" stroke="#000000" points="632.3041,-140.9909 635.804,-150.991 639.3041,-140.991 632.3041,-140.9909"/>
</g>
<!-- LogoComponent -->
<g id="node5" class="node">
<title>LogoComponent</title>
<polygon fill="#ffffb3" stroke="#000000" points="593.3851,-122 482.6149,-122 482.6149,-86 593.3851,-86 593.3851,-122"/>
<text text-anchor="middle" x="538" y="-99.8" font-family="Times,serif" font-size="14.00" fill="#000000">LogoComponent</text>
</g>
<!-- LogoComponent&#45;&gt;ComponentsModule -->
<g id="edge5" class="edge">
<title>LogoComponent&#45;&gt;ComponentsModule</title>
<path fill="none" stroke="#000000" d="M561.6396,-122.1061C561.6396,-122.1061 561.6396,-140.991 561.6396,-140.991"/>
<polygon fill="#000000" stroke="#000000" points="558.1396,-140.9909 561.6396,-150.991 565.1396,-140.991 558.1396,-140.9909"/>
</g>
<!-- NavbarComponent -->
<g id="node6" class="node">
<title>NavbarComponent</title>
<polygon fill="#ffffb3" stroke="#000000" points="464.0297,-122 341.9703,-122 341.9703,-86 464.0297,-86 464.0297,-122"/>
<text text-anchor="middle" x="403" y="-99.8" font-family="Times,serif" font-size="14.00" fill="#000000">NavbarComponent</text>
</g>
<!-- NavbarComponent&#45;&gt;ComponentsModule -->
<g id="edge6" class="edge">
<title>NavbarComponent&#45;&gt;ComponentsModule</title>
<path fill="none" stroke="#000000" d="M437.036,-122.2396C437.036,-137.5706 437.036,-157 437.036,-157 437.036,-157 519.3813,-157 519.3813,-157"/>
<polygon fill="#000000" stroke="#000000" points="519.3814,-160.5001 529.3813,-157 519.3813,-153.5001 519.3814,-160.5001"/>
</g>
<!-- SimpleModalComponent -->
<g id="node7" class="node">
<title>SimpleModalComponent</title>
<polygon fill="#ffffb3" stroke="#000000" points="323.5518,-122 166.4482,-122 166.4482,-86 323.5518,-86 323.5518,-122"/>
<text text-anchor="middle" x="245" y="-99.8" font-family="Times,serif" font-size="14.00" fill="#000000">SimpleModalComponent</text>
</g>
<!-- SimpleModalComponent&#45;&gt;ComponentsModule -->
<g id="edge7" class="edge">
<title>SimpleModalComponent&#45;&gt;ComponentsModule</title>
<path fill="none" stroke="#000000" d="M294.8806,-122.0225C294.8806,-139.3734 294.8806,-163 294.8806,-163 294.8806,-163 519.5084,-163 519.5084,-163"/>
<polygon fill="#000000" stroke="#000000" points="519.5084,-166.5001 529.5084,-163 519.5083,-159.5001 519.5084,-166.5001"/>
</g>
<!-- ButtonComponent  -->
<g id="node10" class="node">
<title>ButtonComponent </title>
<polygon fill="#fb8072" stroke="#000000" points="1071.4502,-252 948.5498,-252 948.5498,-216 1071.4502,-216 1071.4502,-252"/>
<text text-anchor="middle" x="1010" y="-229.8" font-family="Times,serif" font-size="14.00" fill="#000000">ButtonComponent </text>
</g>
<!-- ComponentsModule&#45;&gt;ButtonComponent  -->
<g id="edge9" class="edge">
<title>ComponentsModule&#45;&gt;ButtonComponent </title>
<path fill="none" stroke="#000000" stroke-dasharray="5,2" d="M660.1864,-175C767.4065,-175 969.2327,-175 969.2327,-175 969.2327,-175 969.2327,-205.9775 969.2327,-205.9775"/>
<polygon fill="#000000" stroke="#000000" points="965.7327,-205.9774 969.2327,-215.9775 972.7327,-205.9775 965.7327,-205.9774"/>
</g>
<!-- FooterComponent  -->
<g id="node11" class="node">
<title>FooterComponent </title>
<polygon fill="#fb8072" stroke="#000000" points="930.8814,-252 809.1186,-252 809.1186,-216 930.8814,-216 930.8814,-252"/>
<text text-anchor="middle" x="870" y="-229.8" font-family="Times,serif" font-size="14.00" fill="#000000">FooterComponent </text>
</g>
<!-- ComponentsModule&#45;&gt;FooterComponent  -->
<g id="edge10" class="edge">
<title>ComponentsModule&#45;&gt;FooterComponent </title>
<path fill="none" stroke="#000000" stroke-dasharray="5,2" d="M660.2757,-181C730.3052,-181 831.5907,-181 831.5907,-181 831.5907,-181 831.5907,-205.7604 831.5907,-205.7604"/>
<polygon fill="#000000" stroke="#000000" points="828.0907,-205.7604 831.5907,-215.7604 835.0907,-205.7604 828.0907,-205.7604"/>
</g>
<!-- HeaderComponent  -->
<g id="node12" class="node">
<title>HeaderComponent </title>
<polygon fill="#fb8072" stroke="#000000" points="791.7436,-252 666.2564,-252 666.2564,-216 791.7436,-216 791.7436,-252"/>
<text text-anchor="middle" x="729" y="-229.8" font-family="Times,serif" font-size="14.00" fill="#000000">HeaderComponent </text>
</g>
<!-- ComponentsModule&#45;&gt;HeaderComponent  -->
<g id="edge11" class="edge">
<title>ComponentsModule&#45;&gt;HeaderComponent </title>
<path fill="none" stroke="#000000" stroke-dasharray="5,2" d="M654.2344,-187.1061C654.2344,-206.3391 654.2344,-234 654.2344,-234 654.2344,-234 656.2468,-234 656.2468,-234"/>
<polygon fill="#000000" stroke="#000000" points="656.2468,-237.5001 666.2468,-234 656.2468,-230.5001 656.2468,-237.5001"/>
</g>
<!-- ListComponent  -->
<g id="node13" class="node">
<title>ListComponent </title>
<polygon fill="#fb8072" stroke="#000000" points="648.1115,-252 541.8885,-252 541.8885,-216 648.1115,-216 648.1115,-252"/>
<text text-anchor="middle" x="595" y="-229.8" font-family="Times,serif" font-size="14.00" fill="#000000">ListComponent </text>
</g>
<!-- ComponentsModule&#45;&gt;ListComponent  -->
<g id="edge12" class="edge">
<title>ComponentsModule&#45;&gt;ListComponent </title>
<path fill="none" stroke="#000000" stroke-dasharray="5,2" d="M595,-187.1061C595,-187.1061 595,-205.991 595,-205.991"/>
<polygon fill="#000000" stroke="#000000" points="591.5001,-205.9909 595,-215.991 598.5001,-205.991 591.5001,-205.9909"/>
</g>
<!-- LogoComponent  -->
<g id="node14" class="node">
<title>LogoComponent </title>
<polygon fill="#fb8072" stroke="#000000" points="524.3857,-252 409.6143,-252 409.6143,-216 524.3857,-216 524.3857,-252"/>
<text text-anchor="middle" x="467" y="-229.8" font-family="Times,serif" font-size="14.00" fill="#000000">LogoComponent </text>
</g>
<!-- ComponentsModule&#45;&gt;LogoComponent  -->
<g id="edge13" class="edge">
<title>ComponentsModule&#45;&gt;LogoComponent </title>
<path fill="none" stroke="#000000" stroke-dasharray="5,2" d="M535.7656,-187.1061C535.7656,-206.3391 535.7656,-234 535.7656,-234 535.7656,-234 534.4104,-234 534.4104,-234"/>
<polygon fill="#000000" stroke="#000000" points="534.4104,-230.5001 524.4104,-234 534.4103,-237.5001 534.4104,-230.5001"/>
</g>
<!-- NavbarComponent  -->
<g id="node15" class="node">
<title>NavbarComponent </title>
<polygon fill="#fb8072" stroke="#000000" points="392.0288,-252 265.9712,-252 265.9712,-216 392.0288,-216 392.0288,-252"/>
<text text-anchor="middle" x="329" y="-229.8" font-family="Times,serif" font-size="14.00" fill="#000000">NavbarComponent </text>
</g>
<!-- ComponentsModule&#45;&gt;NavbarComponent  -->
<g id="edge14" class="edge">
<title>ComponentsModule&#45;&gt;NavbarComponent </title>
<path fill="none" stroke="#000000" stroke-dasharray="5,2" d="M529.6285,-181C462.218,-181 366.875,-181 366.875,-181 366.875,-181 366.875,-205.7604 366.875,-205.7604"/>
<polygon fill="#000000" stroke="#000000" points="363.3751,-205.7604 366.875,-215.7604 370.3751,-205.7604 363.3751,-205.7604"/>
</g>
<!-- SimpleModalComponent  -->
<g id="node16" class="node">
<title>SimpleModalComponent </title>
<polygon fill="#fb8072" stroke="#000000" points="247.5512,-252 86.4488,-252 86.4488,-216 247.5512,-216 247.5512,-252"/>
<text text-anchor="middle" x="167" y="-229.8" font-family="Times,serif" font-size="14.00" fill="#000000">SimpleModalComponent </text>
</g>
<!-- ComponentsModule&#45;&gt;SimpleModalComponent  -->
<g id="edge15" class="edge">
<title>ComponentsModule&#45;&gt;SimpleModalComponent </title>
<path fill="none" stroke="#000000" stroke-dasharray="5,2" d="M529.5988,-175C418.9861,-175 206.875,-175 206.875,-175 206.875,-175 206.875,-205.9775 206.875,-205.9775"/>
<polygon fill="#000000" stroke="#000000" points="203.3751,-205.9774 206.875,-215.9775 210.3751,-205.9775 203.3751,-205.9774"/>
</g>
<!-- DirectivesModule -->
<g id="node9" class="node">
<title>DirectivesModule</title>
<polygon fill="#8dd3c7" stroke="#000000" points="141.5772,-122 138.5772,-126 117.5772,-126 114.5772,-122 24.4228,-122 24.4228,-86 141.5772,-86 141.5772,-122"/>
<text text-anchor="middle" x="83" y="-99.8" font-family="Times,serif" font-size="14.00" fill="#000000">DirectivesModule</text>
</g>
<!-- DirectivesModule&#45;&gt;ComponentsModule -->
<g id="edge8" class="edge">
<title>DirectivesModule&#45;&gt;ComponentsModule</title>
<path fill="none" stroke="#000000" d="M114.0065,-122.1061C114.0065,-141.3391 114.0065,-169 114.0065,-169 114.0065,-169 519.6305,-169 519.6305,-169"/>
<polygon fill="#000000" stroke="#000000" points="519.6305,-172.5001 529.6305,-169 519.6305,-165.5001 519.6305,-172.5001"/>
</g>
</g>
</svg>
